<?xml version="1.0" encoding="UTF-8"?>
<svg version="1.1" xmlns="http://www.w3.org/2000/svg" viewBox="0 0 512 512" role="img" aria-label="Apna">
<title>Apna</title>
<path d="M0 0 C168.96 0 337.92 0 512 0 C512 168.96 512 337.92 512 512 C343.04 512 174.08 512 0 512 C0 343.04 0 174.08 0 0 Z " fill="#368564" transform="translate(0,0)"/>
<path d="M0 0 C1.29814133 -0.00524185 2.59628265 -0.0104837 3.9337616 -0.0158844 C6.67477174 -0.02478695 9.41549012 -0.02242699 12.15649414 -0.01245117 C15.64313106 -0.00098898 19.12875096 -0.02114352 22.6152544 -0.05036831 C25.97272023 -0.07329667 29.32995813 -0.06625554 32.6875 -0.0625 C33.92635452 -0.07373398 35.16520905 -0.08496796 36.44160461 -0.09654236 C46.11425988 -0.01950779 54.68882103 1.79942866 62.00390625 8.5078125 C65.0659718 12.33928031 66.78877202 16.89046673 68.54296875 21.43359375 C69.53296875 21.10359375 70.52296875 20.77359375 71.54296875 20.43359375 C73.6654752 20.31318771 75.79208462 20.25825556 77.91796875 20.24609375 C79.03945313 20.23191406 80.1609375 20.21773437 81.31640625 20.203125 C84.49181717 20.42994007 86.68531593 21.07968707 89.54296875 22.43359375 C89.58421875 21.44359375 89.62546875 20.45359375 89.66796875 19.43359375 C90.55664531 13.48906809 94.21442142 9.26628347 98.8359375 5.62890625 C104.11046392 2.03224712 107.86557072 0.31732983 114.32446289 0.2565918 C115.51322525 0.24375656 116.70198761 0.23092133 117.92677307 0.21769714 C119.85794228 0.20661674 119.85794228 0.20661674 121.828125 0.1953125 C122.48587858 0.19123697 123.14363216 0.18716145 123.82131767 0.18296242 C127.3082027 0.1621102 130.79504857 0.14780935 134.28198242 0.13842773 C137.86055695 0.12741269 141.43850117 0.09306876 145.01685429 0.05325603 C147.78721663 0.02692844 150.55743308 0.01872138 153.32790947 0.01514626 C155.28087649 0.00798574 157.23374315 -0.01839055 159.1865387 -0.04524231 C167.87289161 -0.02425459 175.32433992 0.96563269 182.19921875 6.6171875 C182.80765625 7.36097656 183.41609375 8.10476562 184.04296875 8.87109375 C184.67203125 9.61230469 185.30109375 10.35351562 185.94921875 11.1171875 C189.08617317 15.67653547 189.78898083 19.24004417 189.66796875 24.74609375 C189.64992188 25.81472656 189.631875 26.88335937 189.61328125 27.984375 C189.59007812 28.79261719 189.566875 29.60085937 189.54296875 30.43359375 C190.23003906 30.39878906 190.91710937 30.36398438 191.625 30.328125 C192.52605469 30.30105469 193.42710937 30.27398437 194.35546875 30.24609375 C195.69544922 30.19388672 195.69544922 30.19388672 197.0625 30.140625 C199.54296875 30.43359375 199.54296875 30.43359375 201.33984375 31.76171875 C203.23272487 34.39208602 202.9920818 36.28980241 202.54296875 39.43359375 C201.10546875 41.80859375 201.10546875 41.80859375 198.54296875 43.43359375 C195.51249941 43.75698291 192.57768821 43.66703371 189.54296875 43.43359375 C189.64738281 44.55894531 189.64738281 44.55894531 189.75390625 45.70703125 C190.12080056 52.64308081 189.45024748 57.4260279 185.53125 63.234375 C181.11256317 68.12184197 174.58073547 72.20968609 167.88900757 72.58076477 C166.28758408 72.59553108 166.28758408 72.59553108 164.65380859 72.6105957 C162.83579239 72.62984856 162.83579239 72.62984856 160.98104858 72.64949036 C159.66859161 72.65687729 158.35613464 72.66426422 157.00390625 72.671875 C155.99885481 72.67798829 155.99885481 72.67798829 154.9734993 72.68422508 C151.42292848 72.70507479 147.8723961 72.71937789 144.32177734 72.72875977 C140.67360829 72.73978662 137.02605551 72.77414528 133.37810326 72.81393147 C130.55716914 72.84022329 127.73637863 72.8484629 124.91533279 72.85204124 C122.92298913 72.85921624 120.93074412 72.88560609 118.93856812 72.91242981 C110.3257643 72.89195954 103.66296795 71.94974574 96.984375 66.25 C96.36433594 65.50621094 95.74429688 64.76242188 95.10546875 63.99609375 C94.14833984 62.88427734 94.14833984 62.88427734 93.171875 61.75 C89.24338847 56.16344722 89.21960972 50.84191925 89.328125 44.22851562 C89.32919349 41.85770199 89.32919349 41.85770199 88.54296875 38.43359375 C85.22369555 35.47113068 82.46245821 33.86945079 77.98046875 33.93359375 C77.25730469 33.92328125 76.53414063 33.91296875 75.7890625 33.90234375 C72.47623904 34.68589852 70.86149336 35.95032129 68.54296875 38.43359375 C67.90692837 41.81967279 67.90692837 41.81967279 68.04296875 45.55859375 C67.84708202 53.40832651 66.20377009 59.33698272 60.90234375 65.26953125 C52.86407356 72.69225823 44.98154529 72.90072205 34.4296875 72.90234375 C33.0511698 72.90945812 31.67265501 72.91715895 30.29414368 72.92541504 C27.41191368 72.93881756 24.52995739 72.94044849 21.64770508 72.93457031 C17.97932071 72.92868596 14.31226523 72.95923041 10.64413738 72.99968719 C7.79823404 73.02571786 4.9526439 73.02842775 2.10663795 73.02479553 C0.10492791 73.02728136 -1.89671615 73.05186991 -3.89826965 73.07702637 C-11.76207842 73.0179161 -17.9575203 72.09974255 -24.45703125 67.43359375 C-30.03262603 61.73153407 -33.60198807 54.98843621 -33.64453125 46.93359375 C-33.58265625 45.77859375 -33.52078125 44.62359375 -33.45703125 43.43359375 C-34.69453125 43.51609375 -35.93203125 43.59859375 -37.20703125 43.68359375 C-40.30809045 43.67259709 -41.27115516 43.55441321 -43.95703125 41.80859375 C-45.88907357 38.74952674 -45.98683003 36.99081415 -45.45703125 33.43359375 C-44.25390625 31.76171875 -44.25390625 31.76171875 -42.45703125 30.43359375 C-39.9765625 30.140625 -39.9765625 30.140625 -37.26953125 30.24609375 C-35.91794922 30.28669922 -35.91794922 30.28669922 -34.5390625 30.328125 C-33.50845703 30.38033203 -33.50845703 30.38033203 -32.45703125 30.43359375 C-32.5034375 29.66015625 -32.54984375 28.88671875 -32.59765625 28.08984375 C-32.8787184 19.97919315 -32.27429427 14.54067067 -26.65625 8.49609375 C-18.28114957 0.69017491 -11.14714433 -0.02628586 0 0 Z " fill="#F8F9F9" transform="translate(177.45703125,172.56640625)"/>
<path d="M0 0 C4.104375 -0.0825 8.20875 -0.165 12.4375 -0.25 C13.71294678 -0.28641602 14.98839355 -0.32283203 16.30249023 -0.36035156 C24.67910749 -0.44134186 31.27584367 0.54834292 37.5625 6.375 C39.36590752 9.66817894 39.68020045 11.29668643 39 15 C36.28229964 19.33133495 33.66483953 21.89023199 28.66796875 23.54296875 C22.52547972 24.59519601 16.20632115 24.20336246 10 24 C10 26.64 10 29.28 10 32 C6.7 32 3.4 32 0 32 C0 21.44 0 10.88 0 0 Z " fill="#F6F8F7" transform="translate(214,296)"/>
<path d="M0 0 C4.01919149 1.6076766 7.12286158 3.19517469 10.73828125 5.4765625 C11.80498047 6.146875 12.87167969 6.8171875 13.97070312 7.5078125 C15.07349609 8.20648438 16.17628906 8.90515625 17.3125 9.625 C18.44572794 10.33891579 19.57918926 11.05246125 20.71289062 11.765625 C23.47755646 13.50677625 26.23908452 15.25290798 29 17 C29 11.72 29 6.44 29 1 C32.3 1 35.6 1 39 1 C39 12.22 39 23.44 39 35 C31.97830475 31.16998441 25.09898281 27.32588423 18.3125 23.125 C17.09916992 22.37863281 17.09916992 22.37863281 15.86132812 21.6171875 C13.90603049 20.41392742 11.95278552 19.20733274 10 18 C10 22.95 10 27.9 10 33 C6.7 33 3.4 33 0 33 C0 22.11 0 11.22 0 0 Z " fill="#F2F5F4" transform="translate(259,295)"/>
<path d="M0 0 C3.08594534 1.33455191 4.77005288 2.62572763 6.734375 5.34375 C7.22268799 6.00866455 7.71100098 6.6735791 8.21411133 7.35864258 C8.97437622 8.4186145 8.97437622 8.4186145 9.75 9.5 C10.8095848 10.95300064 11.87078555 12.40482422 12.93359375 13.85546875 C13.71065674 14.91773682 13.71065674 14.91773682 14.50341797 16.00146484 C17.11176415 19.48464949 19.92815936 22.78694728 22.76953125 26.08203125 C23.17558594 26.71496094 23.58164063 27.34789062 24 28 C22.85981998 31.42054006 22.07541482 32.2426201 19 34 C16.875 33.875 16.875 33.875 15 33 C14.34 32.01 13.68 31.02 13 30 C10.48614741 29.49039309 10.48614741 29.49039309 7.5546875 29.48828125 C5.94013672 29.43510742 5.94013672 29.43510742 4.29296875 29.38085938 C3.16503906 29.35830078 2.03710938 29.33574219 0.875 29.3125 C-0.26066406 29.27833984 -1.39632812 29.24417969 -2.56640625 29.20898438 C-5.37750579 29.12630498 -8.18828553 29.05722063 -11 29 C-11.268125 29.639375 -11.53625 30.27875 -11.8125 30.9375 C-13 33 -13 33 -16 34 C-19.1875 32.0625 -19.1875 32.0625 -22 30 C-20.29412942 26.02288459 -17.62728543 22.84192417 -14.9375 19.5 C-9.83392924 13.088496 -4.88202522 6.58169326 0 0 Z " fill="#F4F7F5" transform="translate(184,295)"/>
<path d="M0 0 C8.69274356 8.49202302 16.01477424 18.08800367 23 28 C21.63016497 31.16115776 21.0109362 31.9927092 18 34 C17.01 34 16.02 34 15 34 C14.54931152 33.35168213 14.09862305 32.70336426 13.63427734 32.03540039 C12.17070371 29.77940163 12.17070371 29.77940163 9.62744141 29.46655273 C6.62504524 29.43090423 3.62757871 29.40614629 0.625 29.4375 C-0.4165625 29.41365234 -1.458125 29.38980469 -2.53125 29.36523438 C-8.98104123 29.24919278 -8.98104123 29.24919278 -14.2265625 32.53515625 C-15.10441406 33.75525391 -15.10441406 33.75525391 -16 35 C-17.98 33.35 -19.96 31.7 -22 30 C-20.45105412 25.10122539 -17.59347295 21.70685227 -14.375 17.8125 C-13.29425064 16.48439144 -12.21352154 15.15626637 -11.1328125 13.828125 C-10.60204102 13.18037109 -10.07126953 12.53261719 -9.52441406 11.86523438 C-7.41210759 9.28066976 -5.3306391 6.67262074 -3.25 4.0625 C-2.16666667 2.70833333 -1.08333333 1.35416667 0 0 Z " fill="#F4F7F6" transform="translate(326,295)"/>
<path d="M0 0 C2.0622048 -0.054348 4.12482816 -0.09294961 6.1875 -0.125 C7.33605469 -0.14820313 8.48460937 -0.17140625 9.66796875 -0.1953125 C12.91740372 -0.00484152 15.08660521 0.60639873 18 2 C17.8125 3.875 17.8125 3.875 17 6 C13.16393492 8.00142526 9.96915938 8.2191024 5.6875 8.125 C4.61886719 8.10695313 3.55023438 8.08890625 2.44921875 8.0703125 C1.64097656 8.04710937 0.83273438 8.02390625 0 8 C0 5.36 0 2.72 0 0 Z " fill="#478F71" transform="translate(224,304)"/>
<path d="M0 0 C0.66 0 1.32 0 2 0 C6 4.47058824 6 4.47058824 6 7 C2.7 7 -0.6 7 -4 7 C-2.68 4.69 -1.36 2.38 0 0 Z " fill="#529579" transform="translate(184,309)"/>
<path d="M0 0 C1.70884005 1.62339805 3.37446717 3.29319053 5 5 C5 5.66 5 6.32 5 7 C2.03 7 -0.94 7 -4 7 C-2.92598892 4.08482708 -2.22189824 2.22189824 0 0 Z " fill="#4F9377" transform="translate(326,309)"/>
</svg>
