<?xml version="1.0" encoding="UTF-8"?>
<svg version="1.1" xmlns="http://www.w3.org/2000/svg" viewBox="0 0 512 512" role="img" aria-label="Apna">
<title>Apna</title>
<path d="M0 0 C168.96 0 337.92 0 512 0 C512 168.96 512 337.92 512 512 C343.04 512 174.08 512 0 512 C0 343.04 0 174.08 0 0 Z " fill="#368564" transform="translate(0,0)"/>
<path d="M0 0 C1.29814133 -0.00524185 2.59628265 -0.0104837 3.9337616 -0.0158844 C6.67477174 -0.02478695 9.41549012 -0.02242699 12.15649414 -0.01245117 C15.64313106 -0.00098898 19.12875096 -0.02114352 22.6152544 -0.05036831 C25.97272023 -0.07329667 29.32995813 -0.06625554 32.6875 -0.0625 C33.92635452 -0.07373398 35.16520905 -0.08496796 36.44160461 -0.09654236 C46.11425988 -0.01950779 54.68882103 1.79942866 62.00390625 8.5078125 C65.0659718 12.33928031 66.78877202 16.89046673 68.54296875 21.43359375 C69.53296875 21.10359375 70.52296875 20.77359375 71.54296875 20.43359375 C73.6654752 20.31318771 75.79208462 20.25825556 77.91796875 20.24609375 C79.03945313 20.23191406 80.1609375 20.21773437 81.31640625 20.203125 C84.49181717 20.42994007 86.68531593 21.07968707 89.54296875 22.43359375 C89.58421875 21.44359375 89.62546875 20.45359375 89.66796875 19.43359375 C90.55664531 13.48906809 94.21442142 9.26628347 98.8359375 5.62890625 C104.11046392 2.03224712 107.86557072 0.31732983 114.32446289 0.2565918 C115.51322525 0.24375656 116.70198761 0.23092133 117.92677307 0.21769714 C119.85794228 0.20661674 119.85794228 0.20661674 121.828125 0.1953125 C122.48587858 0.19123697 123.14363216 0.18716145 123.82131767 0.18296242 C127.3082027 0.1621102 130.79504857 0.14780935 134.28198242 0.13842773 C137.86055695 0.12741269 141.43850117 0.09306876 145.01685429 0.05325603 C147.78721663 0.02692844 150.55743308 0.01872138 153.32790947 0.01514626 C155.28087649 0.00798574 157.23374315 -0.01839055 159.1865387 -0.04524231 C167.87289161 -0.02425459 175.32433992 0.96563269 182.19921875 6.6171875 C182.80765625 7.36097656 183.41609375 8.10476562 184.04296875 8.87109375 C184.67203125 9.61230469 185.30109375 10.35351562 185.94921875 11.1171875 C189.08617317 15.67653547 189.78898083 19.24004417 189.66796875 24.74609375 C189.64992188 25.81472656 189.631875 26.88335937 189.61328125 27.984375 C189.59007812 28.79261719 189.566875 29.60085937 189.54296875 30.43359375 C190.23003906 30.39878906 190.91710937 30.36398438 191.625 30.328125 C192.52605469 30.30105469 193.42710937 30.27398437 194.35546875 30.24609375 C195.69544922 30.19388672 195.69544922 30.19388672 197.0625 30.140625 C199.54296875 30.43359375 199.54296875 30.43359375 201.33984375 31.76171875 C203.23272487 34.39208602 202.9920818 36.28980241 202.54296875 39.43359375 C201.10546875 41.80859375 201.10546875 41.80859375 198.54296875 43.43359375 C195.51249941 43.75698291 192.57768821 43.66703371 189.54296875 43.43359375 C189.64738281 44.55894531 189.64738281 44.55894531 189.75390625 45.70703125 C190.12080056 52.64308081 189.45024748 57.4260279 185.53125 63.234375 C181.11256317 68.12184197 174.58073547 72.20968609 167.88900757 72.58076477 C166.28758408 72.59553108 166.28758408 72.59553108 164.65380859 72.6105957 C162.83579239 72.62984856 162.83579239 72.62984856 160.98104858 72.64949036 C159.66859161 72.65687729 158.35613464 72.66426422 157.00390625 72.671875 C155.99885481 72.67798829 155.99885481 72.67798829 154.9734993 72.68422508 C151.42292848 72.70507479 147.8723961 72.71937789 144.32177734 72.72875977 C140.67360829 72.73978662 137.02605551 72.77414528 133.37810326 72.81393147 C130.55716914 72.84022329 127.73637863 72.8484629 124.91533279 72.85204124 C122.92298913 72.85921624 120.93074412 72.88560609 118.93856812 72.91242981 C110.3257643 72.89195954 103.66296795 71.94974574 96.984375 66.25 C96.36433594 65.50621094 95.74429688 64.76242188 95.10546875 63.99609375 C94.14833984 62.88427734 94.14833984 62.88427734 93.171875 61.75 C89.24338847 56.16344722 89.21960972 50.84191925 89.328125 44.22851562 C89.32919349 41.85770199 89.32919349 41.85770199 88.54296875 38.43359375 C85.22369555 35.47113068 82.46245821 33.86945079 77.98046875 33.93359375 C77.25730469 33.92328125 76.53414063 33.91296875 75.7890625 33.90234375 C72.47623904 34.68589852 70.86149336 35.95032129 68.54296875 38.43359375 C67.90692837 41.81967279 67.90692837 41.81967279 68.04296875 45.55859375 C67.84708202 53.40832651 66.20377009 59.33698272 60.90234375 65.26953125 C52.86407356 72.69225823 44.98154529 72.90072205 34.4296875 72.90234375 C33.0511698 72.90945812 31.67265501 72.91715895 30.29414368 72.92541504 C27.41191368 72.93881756 24.52995739 72.94044849 21.64770508 72.93457031 C17.97932071 72.92868596 14.31226523 72.95923041 10.64413738 72.99968719 C7.79823404 73.02571786 4.9526439 73.02842775 2.10663795 73.02479553 C0.10492791 73.02728136 -1.89671615 73.05186991 -3.89826965 73.07702637 C-11.76207842 73.0179161 -17.9575203 72.09974255 -24.45703125 67.43359375 C-30.03262603 61.73153407 -33.60198807 54.98843621 -33.64453125 46.93359375 C-33.58265625 45.77859375 -33.52078125 44.62359375 -33.45703125 43.43359375 C-34.69453125 43.51609375 -35.93203125 43.59859375 -37.20703125 43.68359375 C-40.30809045 43.67259709 -41.27115516 43.55441321 -43.95703125 41.80859375 C-45.88907357 38.74952674 -45.98683003 36.99081415 -45.45703125 33.43359375 C-44.25390625 31.76171875 -44.25390625 31.76171875 -42.45703125 30.43359375 C-39.9765625 30.140625 -39.9765625 30.140625 -37.26953125 30.24609375 C-35.91794922 30.28669922 -35.91794922 30.28669922 -34.5390625 30.328125 C-33.50845703 30.38033203 -33.50845703 30.38033203 -32.45703125 30.43359375 C-32.5034375 29.66015625 -32.54984375 28.88671875 -32.59765625 28.08984375 C-32.8787184 19.97919315 -32.27429427 14.54067067 -26.65625 8.49609375 C-18.28114957 0.69017491 -11.14714433 -0.02628586 0 0 Z " fill="#F8F9F9" transform="translate(177.45703125,172.56640625)"/>
</svg>
